<svg xmlns="http://www.w3.org/2000/svg" xmlns:xlink="http://www.w3.org/1999/xlink" width="1056" zoomAndPan="magnify" viewBox="0 0 792 611.999999" height="816" preserveAspectRatio="xMidYMid meet" version="1.0"><defs><g/><clipPath id="3ccc170593"><path d="M 147 57 L 646 57 L 646 555 L 147 555 Z M 147 57 " clip-rule="nonzero"/></clipPath><clipPath id="094e956a4f"><path d="M 160.890625 44.257812 L 658.191406 70.648438 L 631.800781 567.949219 L 134.503906 541.558594 Z M 160.890625 44.257812 " clip-rule="nonzero"/></clipPath><clipPath id="4cf59d5e16"><path d="M 160.890625 44.257812 L 664.964844 71.007812 L 638.214844 575.078125 L 134.144531 548.332031 Z M 160.890625 44.257812 " clip-rule="nonzero"/></clipPath><clipPath id="1fc0e99160"><path d="M 409.4375 57.449219 C 272.167969 50.164062 154.988281 155.539062 147.703125 292.808594 C 140.417969 430.078125 245.789062 547.261719 383.058594 554.546875 C 520.324219 561.832031 637.507812 456.457031 644.792969 319.1875 C 652.078125 181.917969 546.703125 64.734375 409.4375 57.449219 Z M 409.4375 57.449219 " clip-rule="nonzero"/></clipPath><clipPath id="56f985e40f"><path d="M 109.472656 18.738281 L 683 18.738281 L 683 592.488281 L 109.472656 592.488281 Z M 109.472656 18.738281 " clip-rule="nonzero"/></clipPath><clipPath id="c736a56046"><path d="M 396.238281 18.738281 C 237.859375 18.738281 109.472656 147.128906 109.472656 305.507812 C 109.472656 463.886719 237.859375 592.277344 396.238281 592.277344 C 554.613281 592.277344 683 463.886719 683 305.507812 C 683 147.128906 554.613281 18.738281 396.238281 18.738281 Z M 396.238281 18.738281 " clip-rule="nonzero"/></clipPath></defs><rect x="-79.2" width="950.4" fill="#ffffff" y="-61.2" height="734.399999" fill-opacity="1"/><rect x="-79.2" width="950.4" fill="#216869" y="-61.2" height="734.399999" fill-opacity="1"/><g fill="#dce1de" fill-opacity="1"><g transform="translate(228.652426, 499.293984)"><g><path d="M -2.171875 -2 L -13.59375 12.9375 L -15.0625 11.59375 L -6.8125 0.75 L -16.5 6.4375 L -17.1875 5.796875 L -12.3125 -4.328125 L -22.421875 4.8125 L -23.890625 3.453125 L -9.9375 -9.15625 L -8.421875 -7.765625 L -13.234375 2.1875 L -3.6875 -3.390625 Z M -2.171875 -2 "/></g></g></g><g fill="#dce1de" fill-opacity="1"><g transform="translate(210.99514, 482.515268)"><g><path d="M -2.5 -2.796875 L -1.15625 -1.296875 L -15.109375 11.203125 L -16.453125 9.703125 L -10.53125 4.40625 L -16.515625 -2.25 L -22.4375 3.046875 L -23.765625 1.546875 L -9.8125 -10.953125 L -8.484375 -9.453125 L -15.03125 -3.578125 L -9.046875 3.078125 Z M -2.5 -2.796875 "/></g></g></g><g fill="#dce1de" fill-opacity="1"><g transform="translate(195.016581, 464.13067)"><g><path d="M -7.359375 -0.984375 L -11.015625 -5.9375 L -16.859375 2.1875 Z M -5.359375 -1.671875 L -2.046875 -2.765625 L -0.78125 -1.0625 L -19.78125 5.296875 L -20.6875 4.0625 L -8.984375 -12.1875 L -7.734375 -10.484375 L -9.78125 -7.65625 Z M -5.359375 -1.671875 "/></g></g></g><g fill="#dce1de" fill-opacity="1"><g transform="translate(180.862039, 444.307575)"><g><path d="M -23.625 -2.96875 L -21.921875 -4 L -19.109375 0.671875 L -4.75 -7.9375 L -3.71875 -6.203125 L -18.078125 2.40625 L -15.25 7.125 L -16.953125 8.15625 Z M -23.625 -2.96875 "/></g></g></g><g fill="#dce1de" fill-opacity="1"><g transform="translate(168.660287, 423.226203)"><g/></g></g><g fill="#dce1de" fill-opacity="1"><g transform="translate(158.522283, 401.078326)"><g><path d="M -2.6875 -8.328125 L -2.53125 -7.921875 C -2.382812 -7.523438 -2.273438 -7.140625 -2.203125 -6.765625 C -2.140625 -6.390625 -2.117188 -5.957031 -2.140625 -5.46875 C -2.160156 -4.976562 -2.242188 -4.503906 -2.390625 -4.046875 C -2.535156 -3.585938 -2.78125 -3.097656 -3.125 -2.578125 C -3.476562 -2.066406 -3.914062 -1.582031 -4.4375 -1.125 C -4.96875 -0.664062 -5.648438 -0.203125 -6.484375 0.265625 C -7.316406 0.734375 -8.269531 1.164062 -9.34375 1.5625 L -10.1875 1.875 C -13.0625 2.914062 -15.363281 3.140625 -17.09375 2.546875 C -18.820312 1.953125 -20.039062 0.679688 -20.75 -1.265625 L -20.90625 -1.6875 C -21.96875 -4.601562 -21.300781 -6.976562 -18.90625 -8.8125 L -17.6875 -7.1875 C -18.46875 -6.601562 -18.988281 -5.929688 -19.25 -5.171875 C -19.507812 -4.421875 -19.4375 -3.488281 -19.03125 -2.375 L -18.875 -1.953125 C -18.625 -1.273438 -18.300781 -0.722656 -17.90625 -0.296875 C -17.519531 0.117188 -17.015625 0.429688 -16.390625 0.640625 C -15.773438 0.859375 -15.003906 0.910156 -14.078125 0.796875 C -13.148438 0.679688 -12.082031 0.40625 -10.875 -0.03125 L -10.03125 -0.34375 C -5.25 -2.082031 -3.378906 -4.378906 -4.421875 -7.234375 L -4.578125 -7.640625 C -4.929688 -8.617188 -5.441406 -9.3125 -6.109375 -9.71875 C -6.785156 -10.125 -7.613281 -10.316406 -8.59375 -10.296875 L -8.609375 -12.3125 C -7.179688 -12.320312 -5.957031 -12 -4.9375 -11.34375 C -3.925781 -10.695312 -3.175781 -9.691406 -2.6875 -8.328125 Z M -2.6875 -8.328125 "/></g></g></g><g fill="#dce1de" fill-opacity="1"><g transform="translate(150.540277, 378.065407)"><g><path d="M -13.59375 -11.65625 L -12.703125 -11.890625 C -6.484375 -13.503906 -2.84375 -12.265625 -1.78125 -8.171875 L -1.734375 -7.953125 C -1.535156 -7.191406 -1.457031 -6.472656 -1.5 -5.796875 C -1.550781 -5.128906 -1.742188 -4.472656 -2.078125 -3.828125 C -2.421875 -3.179688 -2.910156 -2.585938 -3.546875 -2.046875 C -4.179688 -1.515625 -4.992188 -1.015625 -5.984375 -0.546875 C -6.972656 -0.078125 -8.128906 0.328125 -9.453125 0.671875 L -10.3125 0.890625 C -11.238281 1.128906 -12.09375 1.296875 -12.875 1.390625 C -13.664062 1.492188 -14.484375 1.507812 -15.328125 1.4375 C -16.171875 1.375 -16.910156 1.1875 -17.546875 0.875 C -18.191406 0.570312 -18.78125 0.0859375 -19.3125 -0.578125 C -19.84375 -1.242188 -20.238281 -2.078125 -20.5 -3.078125 L -20.546875 -3.3125 C -20.734375 -4.039062 -20.816406 -4.722656 -20.796875 -5.359375 C -20.785156 -5.992188 -20.6875 -6.554688 -20.5 -7.046875 C -20.320312 -7.546875 -20.054688 -8.007812 -19.703125 -8.4375 C -19.347656 -8.863281 -18.957031 -9.234375 -18.53125 -9.546875 C -18.101562 -9.867188 -17.601562 -10.164062 -17.03125 -10.4375 C -16.46875 -10.71875 -15.914062 -10.945312 -15.375 -11.125 C -14.832031 -11.3125 -14.238281 -11.488281 -13.59375 -11.65625 Z M -18.609375 -3.8125 L -18.5625 -3.578125 C -18.375 -2.890625 -18.113281 -2.320312 -17.78125 -1.875 C -17.445312 -1.4375 -16.984375 -1.085938 -16.390625 -0.828125 C -15.796875 -0.578125 -15.035156 -0.46875 -14.109375 -0.5 C -13.191406 -0.539062 -12.09375 -0.726562 -10.8125 -1.0625 L -9.953125 -1.28125 C -8.171875 -1.75 -6.769531 -2.304688 -5.75 -2.953125 C -4.726562 -3.597656 -4.066406 -4.285156 -3.765625 -5.015625 C -3.472656 -5.742188 -3.441406 -6.554688 -3.671875 -7.453125 L -3.71875 -7.671875 C -3.894531 -8.335938 -4.175781 -8.890625 -4.5625 -9.328125 C -4.945312 -9.765625 -5.472656 -10.09375 -6.140625 -10.3125 C -6.804688 -10.539062 -7.644531 -10.625 -8.65625 -10.5625 C -9.664062 -10.507812 -10.847656 -10.304688 -12.203125 -9.953125 L -13.09375 -9.71875 C -14.375 -9.394531 -15.425781 -9.023438 -16.25 -8.609375 C -17.070312 -8.203125 -17.675781 -7.742188 -18.0625 -7.234375 C -18.457031 -6.734375 -18.691406 -6.210938 -18.765625 -5.671875 C -18.847656 -5.140625 -18.796875 -4.519531 -18.609375 -3.8125 Z M -18.609375 -3.8125 "/></g></g></g><g fill="#dce1de" fill-opacity="1"><g transform="translate(144.78682, 354.39677)"><g><path d="M -0.1875 -1.15625 L -18.953125 0.109375 L -19.28125 -1.921875 L -9.296875 -6.859375 L -20.3125 -8.421875 L -20.640625 -10.4375 L -2.40625 -15.09375 L -2.09375 -13.109375 L -15.34375 -9.71875 L -4.171875 -8.15625 L -4.03125 -7.234375 L -14.171875 -2.203125 L -0.5 -3.125 Z M -0.1875 -1.15625 "/></g></g></g><g fill="#dce1de" fill-opacity="1"><g transform="translate(141.314281, 330.287695)"><g><path d="M -9.75 -3.15625 L -2.25 -3.625 L -2.9375 -14.546875 L -0.921875 -14.671875 L -0.109375 -1.734375 L -18.8125 -0.546875 L -19.625 -13.484375 L -17.625 -13.609375 L -16.9375 -2.6875 L -11.75 -3.015625 L -12.328125 -12.125 L -10.328125 -12.265625 Z M -9.75 -3.15625 "/></g></g></g><g fill="#dce1de" fill-opacity="1"><g transform="translate(140.15424, 305.957431)"><g><path d="M -1.40625 -8.109375 L -1.40625 -8.453125 C -1.363281 -9.660156 -1.65625 -10.691406 -2.28125 -11.546875 C -2.914062 -12.398438 -3.613281 -12.835938 -4.375 -12.859375 L -4.765625 -12.875 C -5.441406 -12.894531 -6.03125 -12.75 -6.53125 -12.4375 C -7.03125 -12.125 -7.4375 -11.546875 -7.75 -10.703125 L -9.71875 -5.578125 C -9.914062 -5.078125 -10.203125 -4.644531 -10.578125 -4.28125 C -10.953125 -3.914062 -11.347656 -3.65625 -11.765625 -3.5 C -12.191406 -3.34375 -12.566406 -3.234375 -12.890625 -3.171875 C -13.210938 -3.117188 -13.5 -3.097656 -13.75 -3.109375 L -14.140625 -3.109375 C -14.691406 -3.128906 -15.238281 -3.273438 -15.78125 -3.546875 C -16.332031 -3.816406 -16.835938 -4.179688 -17.296875 -4.640625 C -17.765625 -5.097656 -18.132812 -5.691406 -18.40625 -6.421875 C -18.6875 -7.148438 -18.8125 -7.941406 -18.78125 -8.796875 L -18.78125 -8.9375 C -18.675781 -12.050781 -17.644531 -14.007812 -15.6875 -14.8125 L -14.90625 -12.96875 C -16.082031 -12.488281 -16.707031 -11.125 -16.78125 -8.875 L -16.78125 -8.734375 C -16.800781 -8.140625 -16.71875 -7.601562 -16.53125 -7.125 C -16.351562 -6.644531 -16.117188 -6.265625 -15.828125 -5.984375 C -15.546875 -5.710938 -15.25 -5.503906 -14.9375 -5.359375 C -14.625 -5.210938 -14.332031 -5.132812 -14.0625 -5.125 L -13.671875 -5.125 C -13.367188 -5.113281 -12.984375 -5.226562 -12.515625 -5.46875 C -12.046875 -5.707031 -11.742188 -5.988281 -11.609375 -6.3125 L -9.640625 -11.4375 C -9.503906 -11.78125 -9.34375 -12.109375 -9.15625 -12.421875 C -8.976562 -12.742188 -8.742188 -13.0625 -8.453125 -13.375 C -8.171875 -13.6875 -7.859375 -13.953125 -7.515625 -14.171875 C -7.171875 -14.390625 -6.753906 -14.5625 -6.265625 -14.6875 C -5.785156 -14.8125 -5.265625 -14.867188 -4.703125 -14.859375 L -4.3125 -14.84375 C -3.664062 -14.820312 -3.035156 -14.644531 -2.421875 -14.3125 C -1.816406 -13.976562 -1.285156 -13.523438 -0.828125 -12.953125 C -0.367188 -12.390625 -0.0078125 -11.707031 0.25 -10.90625 C 0.507812 -10.113281 0.625 -9.273438 0.59375 -8.390625 L 0.59375 -8.046875 C 0.5625 -7.148438 0.390625 -6.304688 0.078125 -5.515625 C -0.234375 -4.722656 -0.640625 -4.054688 -1.140625 -3.515625 C -1.640625 -2.984375 -2.195312 -2.570312 -2.8125 -2.28125 C -3.4375 -1.988281 -4.070312 -1.851562 -4.71875 -1.875 L -4.65625 -3.875 C -3.882812 -3.84375 -3.160156 -4.226562 -2.484375 -5.03125 C -1.804688 -5.84375 -1.445312 -6.867188 -1.40625 -8.109375 Z M -1.40625 -8.109375 "/></g></g></g><g fill="#dce1de" fill-opacity="1"><g transform="translate(141.31725, 281.627329)"><g/></g></g><g fill="#dce1de" fill-opacity="1"><g transform="translate(144.792733, 257.518657)"><g><path d="M 0.828125 -3.65625 L 0.390625 -1.6875 L -17.875 -5.828125 L -17.484375 -7.546875 L -1.234375 -13.3125 L -15.453125 -16.53125 L -15.015625 -18.484375 L 3.25 -14.34375 L 2.859375 -12.625 L -13.40625 -6.890625 Z M 0.828125 -3.65625 "/></g></g></g><g fill="#dce1de" fill-opacity="1"><g transform="translate(150.54906, 233.850712)"><g><path d="M -7.875 -6.546875 L -0.75 -4.1875 L 2.6875 -14.59375 L 4.609375 -13.96875 L 0.546875 -1.640625 L -17.25 -7.5 L -13.1875 -19.828125 L -11.28125 -19.203125 L -14.71875 -8.796875 L -9.78125 -7.171875 L -6.921875 -15.84375 L -5.015625 -15.21875 Z M -7.875 -6.546875 "/></g></g></g><g fill="#dce1de" fill-opacity="1"><g transform="translate(158.533873, 210.838775)"><g><path d="M -7.0625 -12.109375 L -12.046875 -19.140625 L -11.109375 -21.296875 L -4.796875 -12.375 L 6.046875 -13.765625 L 5.109375 -11.609375 L -3.46875 -10.53125 L 1.515625 -3.46875 L 0.578125 -1.3125 L -5.734375 -10.234375 L -16.578125 -8.84375 L -15.640625 -11 Z M -7.0625 -12.109375 "/></g></g></g><g fill="#dce1de" fill-opacity="1"><g transform="translate(168.67456, 188.692156)"><g><path d="M -9.1875 -21.984375 L -7.4375 -21 L -10.09375 -16.234375 L 4.515625 -8.078125 L 3.53125 -6.3125 L -11.078125 -14.46875 L -13.765625 -9.671875 L -15.515625 -10.65625 Z M -9.1875 -21.984375 "/></g></g></g><g fill="#dce1de" fill-opacity="1"><g transform="translate(180.878916, 167.612278)"><g/></g></g><g fill="#dce1de" fill-opacity="1"><g transform="translate(195.035855, 147.790884)"><g><path d="M 0.875 -4.171875 L 7.921875 -12.546875 L 9.46875 -11.25 L 1.125 -1.328125 L -13.203125 -13.40625 L -11.90625 -14.953125 Z M 0.875 -4.171875 "/></g></g></g><g fill="#dce1de" fill-opacity="1"><g transform="translate(211.016691, 129.408268)"><g><path d="M 1.265625 -4.0625 L 9.09375 -11.734375 L 10.5 -10.296875 L 1.234375 -1.21875 L -11.875 -14.59375 L -10.4375 -16 Z M 1.265625 -4.0625 "/></g></g></g><g fill="#dce1de" fill-opacity="1"><g transform="translate(228.675986, 112.631651)"><g><path d="M 7 -5.25 L 6.671875 -4.96875 C 6.347656 -4.707031 6.019531 -4.476562 5.6875 -4.28125 C 5.351562 -4.09375 4.945312 -3.929688 4.46875 -3.796875 C 4 -3.660156 3.523438 -3.585938 3.046875 -3.578125 C 2.566406 -3.566406 2.023438 -3.640625 1.421875 -3.796875 C 0.828125 -3.960938 0.226562 -4.21875 -0.375 -4.5625 C -0.988281 -4.90625 -1.648438 -5.394531 -2.359375 -6.03125 C -3.078125 -6.675781 -3.796875 -7.441406 -4.515625 -8.328125 L -5.078125 -9.03125 C -6.992188 -11.40625 -7.953125 -13.507812 -7.953125 -15.34375 C -7.953125 -17.175781 -7.144531 -18.742188 -5.53125 -20.046875 L -5.1875 -20.328125 C -2.769531 -22.273438 -0.304688 -22.410156 2.203125 -20.734375 L 1.0625 -19.078125 C 0.257812 -19.628906 -0.539062 -19.898438 -1.34375 -19.890625 C -2.144531 -19.890625 -3.007812 -19.515625 -3.9375 -18.765625 L -4.28125 -18.484375 C -4.84375 -18.023438 -5.253906 -17.539062 -5.515625 -17.03125 C -5.785156 -16.53125 -5.921875 -15.953125 -5.921875 -15.296875 C -5.921875 -14.648438 -5.71875 -13.90625 -5.3125 -13.0625 C -4.90625 -12.21875 -4.300781 -11.296875 -3.5 -10.296875 L -2.9375 -9.59375 C 0.269531 -5.632812 3.054688 -4.609375 5.421875 -6.515625 L 5.75 -6.796875 C 6.5625 -7.453125 7.046875 -8.160156 7.203125 -8.921875 C 7.367188 -9.691406 7.285156 -10.539062 6.953125 -11.46875 L 8.84375 -12.140625 C 9.320312 -10.796875 9.414062 -9.535156 9.125 -8.359375 C 8.84375 -7.191406 8.132812 -6.15625 7 -5.25 Z M 7 -5.25 "/></g></g></g><g fill="#dce1de" fill-opacity="1"><g transform="translate(247.853186, 97.613577)"><g/></g></g><g fill="#dce1de" fill-opacity="1"><g transform="translate(268.373834, 84.490697)"><g><path d="M 7.875 -14.421875 L 8.828125 -12.65625 L -0.890625 -7.484375 L -1.84375 -9.25 Z M 7.875 -14.421875 "/></g></g></g><g fill="#dce1de" fill-opacity="1"><g transform="translate(290.051285, 73.382352)"><g/></g></g><g fill="#dce1de" fill-opacity="1"><g transform="translate(312.688332, 64.389578)"><g><path d="M 7.65625 -21.953125 L 8.234375 -20.046875 L 3.921875 -18.71875 L 8.25 -4.625 L 12.5625 -5.953125 L 13.15625 -4.046875 L 2.546875 -0.78125 L 1.953125 -2.6875 L 6.328125 -4.03125 L 2 -18.125 L -2.375 -16.78125 L -2.953125 -18.6875 Z M 7.65625 -21.953125 "/></g></g></g><g fill="#dce1de" fill-opacity="1"><g transform="translate(336.079151, 57.594183)"><g><path d="M 3.671875 -0.75 L 1.703125 -0.34375 L -2.0625 -18.6875 L -0.34375 -19.046875 L 11.59375 -6.640625 L 8.671875 -20.90625 L 10.640625 -21.3125 L 14.40625 -2.96875 L 12.6875 -2.609375 L 0.734375 -15.046875 Z M 3.671875 -0.75 "/></g></g></g><g fill="#dce1de" fill-opacity="1"><g transform="translate(360.010908, 53.057962)"><g><path d="M 3.734375 -0.40625 L 1.71875 -0.1875 L -0.296875 -18.8125 L 1.46875 -19 L 12.171875 -5.484375 L 10.609375 -19.984375 L 12.609375 -20.203125 L 14.625 -1.578125 L 12.875 -1.390625 L 2.171875 -14.921875 Z M 3.734375 -0.40625 "/></g></g></g><g fill="#dce1de" fill-opacity="1"><g transform="translate(384.265994, 50.822178)"><g><path d="M 14.578125 -10.40625 L 14.59375 -9.484375 C 14.664062 -3.054688 12.585938 0.179688 8.359375 0.234375 L 8.140625 0.234375 C 7.347656 0.242188 6.628906 0.144531 5.984375 -0.0625 C 5.347656 -0.28125 4.757812 -0.628906 4.21875 -1.109375 C 3.675781 -1.597656 3.21875 -2.210938 2.84375 -2.953125 C 2.476562 -3.691406 2.1875 -4.597656 1.96875 -5.671875 C 1.75 -6.742188 1.632812 -7.960938 1.625 -9.328125 L 1.609375 -10.21875 C 1.597656 -11.175781 1.632812 -12.050781 1.71875 -12.84375 C 1.8125 -13.632812 1.992188 -14.429688 2.265625 -15.234375 C 2.535156 -16.035156 2.894531 -16.707031 3.34375 -17.25 C 3.800781 -17.800781 4.414062 -18.253906 5.1875 -18.609375 C 5.957031 -18.960938 6.859375 -19.144531 7.890625 -19.15625 L 8.125 -19.15625 C 8.875 -19.164062 9.554688 -19.085938 10.171875 -18.921875 C 10.796875 -18.753906 11.320312 -18.519531 11.75 -18.21875 C 12.1875 -17.925781 12.570312 -17.550781 12.90625 -17.09375 C 13.25 -16.644531 13.519531 -16.175781 13.71875 -15.6875 C 13.925781 -15.207031 14.09375 -14.660156 14.21875 -14.046875 C 14.351562 -13.429688 14.441406 -12.835938 14.484375 -12.265625 C 14.535156 -11.691406 14.566406 -11.070312 14.578125 -10.40625 Z M 8.15625 -17.15625 L 7.921875 -17.15625 C 7.203125 -17.144531 6.585938 -17.03125 6.078125 -16.8125 C 5.566406 -16.59375 5.117188 -16.222656 4.734375 -15.703125 C 4.347656 -15.191406 4.0625 -14.484375 3.875 -13.578125 C 3.695312 -12.679688 3.613281 -11.570312 3.625 -10.25 L 3.640625 -9.359375 C 3.660156 -7.515625 3.863281 -6.019531 4.25 -4.875 C 4.632812 -3.726562 5.144531 -2.921875 5.78125 -2.453125 C 6.414062 -1.984375 7.195312 -1.753906 8.125 -1.765625 L 8.34375 -1.765625 C 9.03125 -1.773438 9.628906 -1.914062 10.140625 -2.1875 C 10.660156 -2.457031 11.109375 -2.890625 11.484375 -3.484375 C 11.867188 -4.078125 12.148438 -4.875 12.328125 -5.875 C 12.515625 -6.875 12.601562 -8.070312 12.59375 -9.46875 L 12.578125 -10.390625 C 12.566406 -11.710938 12.460938 -12.820312 12.265625 -13.71875 C 12.066406 -14.613281 11.765625 -15.3125 11.359375 -15.8125 C 10.960938 -16.3125 10.507812 -16.660156 10 -16.859375 C 9.5 -17.066406 8.882812 -17.164062 8.15625 -17.15625 Z M 8.15625 -17.15625 "/></g></g></g><g fill="#dce1de" fill-opacity="1"><g transform="translate(408.623754, 50.907179)"><g><path d="M 7.25 0.9375 L 2.796875 -18.5625 L 4.890625 -18.390625 L 8.5 -2.65625 L 14.703125 -17.578125 L 16.796875 -17.40625 L 9.109375 1.09375 Z M 7.25 0.9375 "/></g></g></g><g fill="#dce1de" fill-opacity="1"><g transform="translate(432.86263, 53.312179)"><g><path d="M 6.046875 -4.34375 L 12.09375 -3.25 L 10.765625 -13.171875 Z M 5.03125 -2.484375 L 3.375 0.609375 L 1.3125 0.234375 L 10.75 -17.4375 L 12.25 -17.171875 L 14.90625 2.6875 L 12.828125 2.3125 L 12.375 -1.15625 Z M 5.03125 -2.484375 "/></g></g></g><g fill="#dce1de" fill-opacity="1"><g transform="translate(456.762141, 58.015297)"><g><path d="M 19.234375 -14.046875 L 18.6875 -12.125 L 13.4375 -13.609375 L 8.90625 2.5 L 6.96875 1.953125 L 11.5 -14.15625 L 6.203125 -15.640625 L 6.75 -17.5625 Z M 19.234375 -14.046875 "/></g></g></g><g fill="#dce1de" fill-opacity="1"><g transform="translate(480.104927, 64.973775)"><g><path d="M 19.59375 -12.5 L 18.875 -10.640625 L 14.671875 -12.265625 L 9.34375 1.484375 L 13.546875 3.109375 L 12.828125 4.96875 L 2.484375 0.96875 L 3.203125 -0.890625 L 7.46875 0.75 L 12.796875 -13 L 8.53125 -14.640625 L 9.25 -16.5 Z M 19.59375 -12.5 "/></g></g></g><g fill="#dce1de" fill-opacity="1"><g transform="translate(502.678657, 74.124299)"><g><path d="M 17.734375 -2.546875 L 17.3125 -1.734375 C 14.4375 4.015625 11.109375 5.941406 7.328125 4.046875 L 7.140625 3.953125 C 6.429688 3.597656 5.835938 3.175781 5.359375 2.6875 C 4.878906 2.195312 4.507812 1.613281 4.25 0.9375 C 4 0.257812 3.878906 -0.488281 3.890625 -1.3125 C 3.898438 -2.144531 4.054688 -3.085938 4.359375 -4.140625 C 4.660156 -5.191406 5.113281 -6.328125 5.71875 -7.546875 L 6.125 -8.34375 C 6.550781 -9.195312 6.984375 -9.953125 7.421875 -10.609375 C 7.867188 -11.273438 8.394531 -11.898438 9 -12.484375 C 9.613281 -13.066406 10.25 -13.5 10.90625 -13.78125 C 11.5625 -14.0625 12.3125 -14.179688 13.15625 -14.140625 C 14 -14.097656 14.882812 -13.847656 15.8125 -13.390625 L 16.015625 -13.28125 C 16.691406 -12.945312 17.265625 -12.5625 17.734375 -12.125 C 18.203125 -11.695312 18.5625 -11.25 18.8125 -10.78125 C 19.0625 -10.320312 19.226562 -9.8125 19.3125 -9.25 C 19.40625 -8.695312 19.429688 -8.15625 19.390625 -7.625 C 19.347656 -7.101562 19.242188 -6.539062 19.078125 -5.9375 C 18.921875 -5.34375 18.726562 -4.78125 18.5 -4.25 C 18.28125 -3.71875 18.023438 -3.148438 17.734375 -2.546875 Z M 15.125 -11.5 L 14.921875 -11.609375 C 14.273438 -11.929688 13.675781 -12.109375 13.125 -12.140625 C 12.570312 -12.179688 12.003906 -12.0625 11.421875 -11.78125 C 10.835938 -11.507812 10.257812 -11.007812 9.6875 -10.28125 C 9.113281 -9.5625 8.53125 -8.613281 7.9375 -7.4375 L 7.53125 -6.640625 C 6.707031 -4.992188 6.203125 -3.570312 6.015625 -2.375 C 5.828125 -1.1875 5.90625 -0.238281 6.25 0.46875 C 6.601562 1.175781 7.195312 1.738281 8.03125 2.15625 L 8.21875 2.25 C 8.832031 2.5625 9.429688 2.710938 10.015625 2.703125 C 10.609375 2.703125 11.207031 2.523438 11.8125 2.171875 C 12.425781 1.828125 13.039062 1.253906 13.65625 0.453125 C 14.28125 -0.347656 14.90625 -1.375 15.53125 -2.625 L 15.953125 -3.4375 C 16.546875 -4.625 16.957031 -5.664062 17.1875 -6.5625 C 17.414062 -7.457031 17.46875 -8.210938 17.34375 -8.828125 C 17.226562 -9.453125 16.992188 -9.972656 16.640625 -10.390625 C 16.285156 -10.804688 15.78125 -11.175781 15.125 -11.5 Z M 15.125 -11.5 "/></g></g></g><g fill="#dce1de" fill-opacity="1"><g transform="translate(524.278108, 85.38366)"><g><path d="M 3.171875 2 L 1.46875 0.921875 L 11.421875 -14.953125 L 12.921875 -14.015625 L 12.96875 3.234375 L 20.71875 -9.125 L 22.40625 -8.0625 L 12.453125 7.8125 L 10.96875 6.890625 L 10.921875 -10.359375 Z M 3.171875 2 "/></g></g></g><g fill="#dce1de" fill-opacity="1"><g transform="translate(544.706623, 98.649425)"><g/></g></g><g fill="#dce1de" fill-opacity="1"><g transform="translate(563.778535, 113.800953)"><g><path d="M 23.53125 -3.65625 L 22.171875 -2.203125 L 18.1875 -5.921875 L 6.765625 6.3125 L 5.28125 4.9375 L 16.703125 -7.296875 L 12.6875 -11.046875 L 14.046875 -12.5 Z M 23.53125 -3.65625 "/></g></g></g><g fill="#dce1de" fill-opacity="1"><g transform="translate(581.320384, 130.700414)"><g><path d="M 2.484375 2.8125 L 1.15625 1.296875 L 15.1875 -11.109375 L 16.515625 -9.59375 L 10.578125 -4.34375 L 16.515625 2.359375 L 22.453125 -2.890625 L 23.765625 -1.390625 L 9.734375 11.015625 L 8.421875 9.515625 L 15.015625 3.6875 L 9.078125 -3.015625 Z M 2.484375 2.8125 "/></g></g></g><g fill="#dce1de" fill-opacity="1"><g transform="translate(597.172547, 149.194104)"><g><path d="M 9.15625 -2.015625 L 2.203125 3.03125 L 1.015625 1.40625 L 16.171875 -9.609375 L 20.09375 -4.21875 C 20.5625 -3.582031 20.941406 -2.992188 21.234375 -2.453125 C 21.535156 -1.910156 21.757812 -1.359375 21.90625 -0.796875 C 22.050781 -0.242188 22.09375 0.269531 22.03125 0.75 C 21.96875 1.238281 21.78125 1.71875 21.46875 2.1875 C 21.15625 2.664062 20.710938 3.113281 20.140625 3.53125 L 19.171875 4.234375 C 17.109375 5.734375 15.015625 5.320312 12.890625 3 L 9.1875 12.640625 L 7.78125 10.703125 L 11.453125 1.140625 Z M 13.5 0.5625 C 14 1.25 14.460938 1.789062 14.890625 2.1875 C 15.328125 2.582031 15.726562 2.835938 16.09375 2.953125 C 16.457031 3.078125 16.785156 3.109375 17.078125 3.046875 C 17.378906 2.992188 17.6875 2.851562 18 2.625 L 18.96875 1.921875 C 19.25 1.710938 19.46875 1.515625 19.625 1.328125 C 19.789062 1.140625 19.910156 0.910156 19.984375 0.640625 C 20.054688 0.378906 20.050781 0.0820312 19.96875 -0.25 C 19.894531 -0.582031 19.734375 -0.976562 19.484375 -1.4375 C 19.242188 -1.90625 18.90625 -2.441406 18.46875 -3.046875 L 15.734375 -6.8125 L 10.765625 -3.203125 Z M 13.5 0.5625 "/></g></g></g><g fill="#dce1de" fill-opacity="1"><g transform="translate(611.190785, 169.113799)"><g><path d="M 16.28125 7.453125 L 15.484375 7.921875 C 9.953125 11.191406 6.113281 11.007812 3.96875 7.375 L 3.859375 7.1875 C 3.453125 6.5 3.179688 5.820312 3.046875 5.15625 C 2.910156 4.488281 2.914062 3.800781 3.0625 3.09375 C 3.207031 2.394531 3.507812 1.695312 3.96875 1 C 4.425781 0.3125 5.066406 -0.390625 5.890625 -1.109375 C 6.710938 -1.828125 7.710938 -2.535156 8.890625 -3.234375 L 9.65625 -3.6875 C 10.488281 -4.175781 11.269531 -4.578125 12 -4.890625 C 12.726562 -5.210938 13.507812 -5.457031 14.34375 -5.625 C 15.175781 -5.789062 15.941406 -5.8125 16.640625 -5.6875 C 17.335938 -5.570312 18.03125 -5.265625 18.71875 -4.765625 C 19.414062 -4.265625 20.023438 -3.570312 20.546875 -2.6875 L 20.671875 -2.484375 C 21.054688 -1.835938 21.328125 -1.207031 21.484375 -0.59375 C 21.640625 0.0195312 21.695312 0.59375 21.65625 1.125 C 21.613281 1.65625 21.476562 2.175781 21.25 2.6875 C 21.03125 3.195312 20.757812 3.660156 20.4375 4.078125 C 20.113281 4.503906 19.71875 4.925781 19.25 5.34375 C 18.789062 5.757812 18.320312 6.128906 17.84375 6.453125 C 17.375 6.773438 16.851562 7.109375 16.28125 7.453125 Z M 18.9375 -1.46875 L 18.8125 -1.671875 C 18.445312 -2.296875 18.039062 -2.769531 17.59375 -3.09375 C 17.15625 -3.425781 16.617188 -3.628906 15.984375 -3.703125 C 15.347656 -3.785156 14.59375 -3.679688 13.71875 -3.390625 C 12.84375 -3.109375 11.832031 -2.628906 10.6875 -1.953125 L 9.921875 -1.5 C 8.335938 -0.5625 7.144531 0.351562 6.34375 1.25 C 5.539062 2.15625 5.09375 3 5 3.78125 C 4.914062 4.570312 5.109375 5.367188 5.578125 6.171875 L 5.6875 6.359375 C 6.039062 6.953125 6.460938 7.40625 6.953125 7.71875 C 7.441406 8.03125 8.035156 8.195312 8.734375 8.21875 C 9.441406 8.25 10.273438 8.097656 11.234375 7.765625 C 12.191406 7.429688 13.269531 6.910156 14.46875 6.203125 L 15.265625 5.734375 C 16.398438 5.054688 17.304688 4.40625 17.984375 3.78125 C 18.671875 3.164062 19.132812 2.5625 19.375 1.96875 C 19.613281 1.382812 19.691406 0.820312 19.609375 0.28125 C 19.535156 -0.257812 19.3125 -0.84375 18.9375 -1.46875 Z M 18.9375 -1.46875 "/></g></g></g><g fill="#dce1de" fill-opacity="1"><g transform="translate(623.247683, 190.278332)"><g><path d="M 6.28125 1.203125 C 5.375 1.617188 4.773438 2.304688 4.484375 3.265625 C 4.191406 4.222656 4.34375 5.332031 4.9375 6.59375 L 5.078125 6.90625 C 5.671875 8.175781 6.425781 9 7.34375 9.375 C 8.257812 9.75 9.171875 9.726562 10.078125 9.3125 L 22.359375 3.5625 L 23.203125 5.375 L 10.921875 11.125 C 9.515625 11.78125 8.09375 11.828125 6.65625 11.265625 C 5.226562 10.703125 4.097656 9.53125 3.265625 7.75 L 3.125 7.4375 C 2.289062 5.65625 2.113281 4.03125 2.59375 2.5625 C 3.070312 1.101562 4.015625 0.046875 5.421875 -0.609375 L 17.703125 -6.359375 L 18.5625 -4.546875 Z M 6.28125 1.203125 "/></g></g></g><g fill="#dce1de" fill-opacity="1"><g transform="translate(633.233633, 212.495189)"><g><path d="M 8 12.75 C 6.78125 12.726562 5.691406 12.3125 4.734375 11.5 C 3.785156 10.695312 3.082031 9.644531 2.625 8.34375 L 2.515625 8.03125 C 2.367188 7.632812 2.257812 7.238281 2.1875 6.84375 C 2.125 6.445312 2.101562 6.003906 2.125 5.515625 C 2.15625 5.035156 2.25 4.5625 2.40625 4.09375 C 2.570312 3.625 2.828125 3.132812 3.171875 2.625 C 3.515625 2.113281 3.945312 1.625 4.46875 1.15625 C 5 0.695312 5.679688 0.238281 6.515625 -0.21875 C 7.347656 -0.6875 8.289062 -1.109375 9.34375 -1.484375 L 10.1875 -1.78125 C 11.582031 -2.28125 12.847656 -2.570312 13.984375 -2.65625 C 15.128906 -2.75 16.066406 -2.691406 16.796875 -2.484375 C 17.523438 -2.273438 18.171875 -1.9375 18.734375 -1.46875 C 19.304688 -1.007812 19.738281 -0.539062 20.03125 -0.0625 C 20.320312 0.40625 20.566406 0.925781 20.765625 1.5 L 20.890625 1.828125 C 21.929688 4.753906 21.25 7.125 18.84375 8.9375 L 17.625 7.3125 C 18.414062 6.738281 18.941406 6.070312 19.203125 5.3125 C 19.472656 4.5625 19.410156 3.625 19.015625 2.5 L 18.890625 2.171875 C 18.648438 1.492188 18.328125 0.929688 17.921875 0.484375 C 17.515625 0.046875 16.992188 -0.273438 16.359375 -0.484375 C 15.734375 -0.703125 14.957031 -0.765625 14.03125 -0.671875 C 13.113281 -0.578125 12.0625 -0.316406 10.875 0.109375 L 10.03125 0.40625 C 9.28125 0.675781 8.59375 0.960938 7.96875 1.265625 C 7.34375 1.566406 6.742188 1.9375 6.171875 2.375 C 5.597656 2.8125 5.144531 3.269531 4.8125 3.75 C 4.476562 4.226562 4.265625 4.773438 4.171875 5.390625 C 4.078125 6.015625 4.15625 6.671875 4.40625 7.359375 L 4.515625 7.671875 C 4.847656 8.609375 5.316406 9.332031 5.921875 9.84375 C 6.535156 10.363281 7.128906 10.660156 7.703125 10.734375 L 11.09375 9.53125 L 9.875 6.125 L 11.78125 5.453125 L 13.671875 10.734375 Z M 8 12.75 "/></g></g></g><g fill="#dce1de" fill-opacity="1"><g transform="translate(641.057622, 235.562317)"><g><path d="M 0.921875 3.640625 L 0.421875 1.6875 L 18.59375 -2.890625 L 19.09375 -0.9375 L 11.390625 1 L 13.578125 9.671875 L 21.28125 7.734375 L 21.765625 9.671875 L 3.59375 14.25 L 3.109375 12.3125 L 11.640625 10.15625 L 9.453125 1.484375 Z M 0.921875 3.640625 "/></g></g></g><g fill="#dce1de" fill-opacity="1"><g transform="translate(646.648666, 259.269835)"><g/></g></g><g fill="#dce1de" fill-opacity="1"><g transform="translate(649.955803, 283.402189)"><g><path d="M 19.53125 13.640625 L 17.53125 13.75 L 17.21875 8.296875 L 0.515625 9.234375 L 0.40625 7.21875 L 17.109375 6.28125 L 16.796875 0.796875 L 18.796875 0.6875 Z M 19.53125 13.640625 "/></g></g></g><g fill="#dce1de" fill-opacity="1"><g transform="translate(650.948963, 307.739823)"><g><path d="M 8.453125 4.09375 L -0.140625 3.75 L -0.0625 1.734375 L 18.65625 2.46875 L 18.390625 9.140625 C 18.359375 9.921875 18.289062 10.613281 18.1875 11.21875 C 18.082031 11.820312 17.914062 12.390625 17.6875 12.921875 C 17.457031 13.460938 17.171875 13.898438 16.828125 14.234375 C 16.484375 14.578125 16.039062 14.835938 15.5 15.015625 C 14.957031 15.191406 14.332031 15.269531 13.625 15.25 L 12.421875 15.203125 C 9.878906 15.097656 8.5 13.476562 8.28125 10.34375 L -0.609375 15.609375 L -0.515625 13.21875 L 8.296875 8 Z M 10.25 8.828125 C 10.21875 9.671875 10.242188 10.378906 10.328125 10.953125 C 10.421875 11.523438 10.570312 11.96875 10.78125 12.28125 C 11 12.601562 11.242188 12.832031 11.515625 12.96875 C 11.785156 13.101562 12.113281 13.179688 12.5 13.203125 L 13.703125 13.25 C 14.054688 13.257812 14.351562 13.238281 14.59375 13.1875 C 14.832031 13.144531 15.0625 13.039062 15.28125 12.875 C 15.507812 12.707031 15.691406 12.46875 15.828125 12.15625 C 15.972656 11.851562 16.09375 11.445312 16.1875 10.9375 C 16.289062 10.425781 16.359375 9.800781 16.390625 9.0625 L 16.578125 4.40625 L 10.4375 4.171875 Z M 10.25 8.828125 "/></g></g></g><g fill="#dce1de" fill-opacity="1"><g transform="translate(649.619183, 332.061359)"><g><path d="M 4.609375 5.84375 L 3.78125 11.9375 L 13.625 10.171875 Z M 2.6875 4.921875 L -0.46875 3.40625 L -0.171875 1.3125 L 17.890625 9.984375 L 17.6875 11.484375 L -2.03125 15 L -1.75 12.90625 L 1.6875 12.3125 Z M 2.6875 4.921875 "/></g></g></g><g fill="#dce1de" fill-opacity="1"><g transform="translate(645.978524, 356.145635)"><g><path d="M -0.859375 3.65625 L -0.390625 1.6875 L 17.84375 5.953125 L 17.4375 7.671875 L 1.15625 13.328125 L 15.34375 16.640625 L 14.890625 18.578125 L -3.34375 14.3125 L -2.953125 12.609375 L 13.34375 6.984375 Z M -0.859375 3.65625 "/></g></g></g><g fill="#dce1de" fill-opacity="1"><g transform="translate(640.059984, 379.773562)"><g><path d="M -1 8.171875 L -1.109375 8.5 C -1.492188 9.644531 -1.503906 10.710938 -1.140625 11.703125 C -0.785156 12.691406 -0.25 13.3125 0.46875 13.5625 L 0.84375 13.6875 C 1.476562 13.90625 2.078125 13.9375 2.640625 13.78125 C 3.210938 13.632812 3.773438 13.203125 4.328125 12.484375 L 7.6875 8.140625 C 8.019531 7.722656 8.414062 7.394531 8.875 7.15625 C 9.34375 6.914062 9.800781 6.78125 10.25 6.75 C 10.707031 6.71875 11.097656 6.71875 11.421875 6.75 C 11.742188 6.789062 12.023438 6.851562 12.265625 6.9375 L 12.625 7.0625 C 13.15625 7.238281 13.644531 7.535156 14.09375 7.953125 C 14.539062 8.367188 14.921875 8.863281 15.234375 9.4375 C 15.546875 10.007812 15.726562 10.6875 15.78125 11.46875 C 15.832031 12.25 15.722656 13.046875 15.453125 13.859375 L 15.40625 13.984375 C 14.40625 16.929688 12.859375 18.507812 10.765625 18.71875 L 10.546875 16.71875 C 11.804688 16.601562 12.796875 15.476562 13.515625 13.34375 L 13.5625 13.21875 C 13.75 12.644531 13.820312 12.101562 13.78125 11.59375 C 13.75 11.082031 13.632812 10.65625 13.4375 10.3125 C 13.238281 9.96875 13.007812 9.679688 12.75 9.453125 C 12.5 9.222656 12.238281 9.0625 11.96875 8.96875 L 11.609375 8.84375 C 11.316406 8.75 10.910156 8.75 10.390625 8.84375 C 9.878906 8.9375 9.507812 9.117188 9.28125 9.390625 L 5.921875 13.734375 C 5.691406 14.023438 5.441406 14.296875 5.171875 14.546875 C 4.910156 14.796875 4.597656 15.023438 4.234375 15.234375 C 3.867188 15.453125 3.488281 15.613281 3.09375 15.71875 C 2.695312 15.832031 2.25 15.882812 1.75 15.875 C 1.25 15.863281 0.734375 15.769531 0.203125 15.59375 L -0.171875 15.46875 C -0.785156 15.257812 -1.332031 14.90625 -1.8125 14.40625 C -2.300781 13.90625 -2.679688 13.316406 -2.953125 12.640625 C -3.222656 11.960938 -3.367188 11.203125 -3.390625 10.359375 C -3.410156 9.523438 -3.28125 8.691406 -3 7.859375 L -2.890625 7.53125 C -2.597656 6.675781 -2.1875 5.914062 -1.65625 5.25 C -1.132812 4.59375 -0.5625 4.078125 0.0625 3.703125 C 0.695312 3.328125 1.351562 3.085938 2.03125 2.984375 C 2.71875 2.890625 3.367188 2.945312 3.984375 3.15625 L 3.34375 5.0625 C 2.613281 4.8125 1.804688 4.972656 0.921875 5.546875 C 0.0351562 6.117188 -0.601562 6.992188 -1 8.171875 Z M -1 8.171875 "/></g></g></g><g fill="#dce1de" fill-opacity="1"><g transform="translate(631.917595, 402.730202)"><g><path d="M 7.171875 7.3125 L -1.828125 3.28125 L -1 1.4375 L 16.390625 9.234375 L 11.09375 21.078125 L 9.28125 20.25 L 13.75 10.25 L 9 8.125 L 5.265625 16.484375 L 3.4375 15.671875 Z M 7.171875 7.3125 "/></g></g></g><g fill="#dce1de" fill-opacity="1"><g transform="translate(621.625269, 424.806813)"><g><path d="M 1.65625 17.828125 L 0.84375 17.375 C -4.738281 14.207031 -6.488281 10.785156 -4.40625 7.109375 L -4.296875 6.921875 C -3.910156 6.234375 -3.460938 5.660156 -2.953125 5.203125 C -2.453125 4.753906 -1.851562 4.414062 -1.15625 4.1875 C -0.46875 3.96875 0.285156 3.882812 1.109375 3.9375 C 1.929688 3.988281 2.859375 4.191406 3.890625 4.546875 C 4.929688 4.910156 6.046875 5.429688 7.234375 6.109375 L 8.015625 6.546875 C 8.847656 7.023438 9.582031 7.5 10.21875 7.96875 C 10.851562 8.4375 11.445312 8.988281 12 9.625 C 12.5625 10.269531 12.96875 10.925781 13.21875 11.59375 C 13.46875 12.269531 13.546875 13.023438 13.453125 13.859375 C 13.367188 14.703125 13.070312 15.570312 12.5625 16.46875 L 12.453125 16.671875 C 12.078125 17.328125 11.660156 17.878906 11.203125 18.328125 C 10.742188 18.773438 10.273438 19.113281 9.796875 19.34375 C 9.328125 19.570312 8.8125 19.71875 8.25 19.78125 C 7.695312 19.84375 7.160156 19.835938 6.640625 19.765625 C 6.117188 19.691406 5.5625 19.554688 4.96875 19.359375 C 4.375 19.160156 3.816406 18.9375 3.296875 18.6875 C 2.773438 18.445312 2.226562 18.160156 1.65625 17.828125 Z M 10.71875 15.6875 L 10.828125 15.484375 C 11.179688 14.859375 11.390625 14.269531 11.453125 13.71875 C 11.523438 13.175781 11.4375 12.601562 11.1875 12 C 10.9375 11.40625 10.46875 10.800781 9.78125 10.1875 C 9.09375 9.582031 8.175781 8.953125 7.03125 8.296875 L 6.25 7.859375 C 4.644531 6.953125 3.25 6.375 2.0625 6.125 C 0.882812 5.875 -0.0625 5.90625 -0.78125 6.21875 C -1.507812 6.539062 -2.101562 7.101562 -2.5625 7.90625 L -2.671875 8.09375 C -3.015625 8.695312 -3.195312 9.289062 -3.21875 9.875 C -3.25 10.457031 -3.097656 11.0625 -2.765625 11.6875 C -2.441406 12.3125 -1.894531 12.953125 -1.125 13.609375 C -0.363281 14.273438 0.617188 14.953125 1.828125 15.640625 L 2.640625 16.09375 C 3.785156 16.75 4.796875 17.21875 5.671875 17.5 C 6.554688 17.78125 7.3125 17.875 7.9375 17.78125 C 8.570312 17.695312 9.101562 17.484375 9.53125 17.140625 C 9.957031 16.804688 10.351562 16.320312 10.71875 15.6875 Z M 10.71875 15.6875 "/></g></g></g><g fill="#dce1de" fill-opacity="1"><g transform="translate(609.276709, 445.802492)"><g><path d="M 4.875 8 L -2.15625 3.0625 L -1 1.421875 L 14.34375 12.171875 L 10.515625 17.625 C 10.066406 18.269531 9.628906 18.820312 9.203125 19.28125 C 8.785156 19.738281 8.335938 20.128906 7.859375 20.453125 C 7.390625 20.785156 6.914062 21 6.4375 21.09375 C 5.957031 21.1875 5.441406 21.160156 4.890625 21.015625 C 4.347656 20.878906 3.785156 20.601562 3.203125 20.1875 L 2.21875 19.5 C 0.125 18.039062 -0.160156 15.929688 1.359375 13.171875 L -8.96875 12.796875 L -7.59375 10.828125 L 2.640625 11.203125 Z M 3.84375 12.953125 C 3.363281 13.648438 3.003906 14.269531 2.765625 14.8125 C 2.523438 15.351562 2.40625 15.8125 2.40625 16.1875 C 2.414062 16.570312 2.5 16.894531 2.65625 17.15625 C 2.8125 17.414062 3.046875 17.65625 3.359375 17.875 L 4.34375 18.5625 C 4.632812 18.769531 4.894531 18.914062 5.125 19 C 5.351562 19.09375 5.601562 19.128906 5.875 19.109375 C 6.144531 19.097656 6.425781 19 6.71875 18.8125 C 7.007812 18.625 7.332031 18.34375 7.6875 17.96875 C 8.050781 17.59375 8.445312 17.097656 8.875 16.484375 L 11.546875 12.671875 L 6.515625 9.140625 Z M 3.84375 12.953125 "/></g></g></g><g fill="#dce1de" fill-opacity="1"><g transform="translate(594.984105, 465.526326)"><g><path d="M -0.765625 0.890625 L 12.375 14.359375 L 11.046875 15.921875 L 0.8125 11.53125 L 6.765625 20.921875 L 5.4375 22.484375 L -9.921875 11.625 L -8.625 10.09375 L 2.53125 17.984375 L -3.5 8.46875 L -2.890625 7.765625 L 7.5 12.21875 L -2.0625 2.40625 Z M -0.765625 0.890625 "/></g></g></g><g fill="#dce1de" fill-opacity="1"><g transform="translate(578.877645, 483.798956)"><g><path d="M 0 7.4375 L -4.421875 11.71875 L 4.40625 16.421875 Z M -0.9375 5.53125 L -2.46875 2.390625 L -0.953125 0.921875 L 7.875 18.90625 L 6.78125 19.953125 L -10.890625 10.515625 L -9.375 9.0625 L -6.296875 10.703125 Z M -0.9375 5.53125 "/></g></g></g><g fill="#dce1de" fill-opacity="1"><g transform="translate(561.103745, 500.454055)"><g><path d="M 0.171875 23.828125 L -1.0625 22.25 L 3.203125 18.84375 L -7.234375 5.765625 L -5.65625 4.515625 L 4.78125 17.59375 L 9.078125 14.15625 L 10.3125 15.734375 Z M 0.171875 23.828125 "/></g></g></g><g fill="#dce1de" fill-opacity="1"><g transform="translate(541.82398, 515.340294)"><g><path d="M -1.296875 23.203125 L -2.390625 21.53125 L 1.390625 19.0625 L -6.65625 6.71875 L -10.4375 9.1875 L -11.53125 7.515625 L -2.234375 1.453125 L -1.140625 3.125 L -4.96875 5.625 L 3.078125 17.96875 L 6.90625 15.46875 L 8 17.140625 Z M -1.296875 23.203125 "/></g></g></g><g fill="#dce1de" fill-opacity="1"><g transform="translate(521.213879, 528.322137)"><g><path d="M -8.28125 15.875 L -8.71875 15.0625 C -11.695312 9.363281 -11.3125 5.535156 -7.5625 3.578125 L -7.375 3.484375 C -6.664062 3.109375 -5.972656 2.867188 -5.296875 2.765625 C -4.628906 2.671875 -3.945312 2.71875 -3.25 2.90625 C -2.550781 3.09375 -1.867188 3.429688 -1.203125 3.921875 C -0.535156 4.421875 0.132812 5.097656 0.8125 5.953125 C 1.5 6.804688 2.15625 7.835938 2.78125 9.046875 L 3.203125 9.84375 C 3.640625 10.6875 3.992188 11.476562 4.265625 12.21875 C 4.546875 12.96875 4.75 13.757812 4.875 14.59375 C 5 15.4375 4.984375 16.203125 4.828125 16.890625 C 4.671875 17.585938 4.328125 18.269531 3.796875 18.9375 C 3.273438 19.601562 2.554688 20.175781 1.640625 20.65625 L 1.4375 20.765625 C 0.769531 21.109375 0.125 21.34375 -0.5 21.46875 C -1.125 21.601562 -1.695312 21.632812 -2.21875 21.5625 C -2.75 21.5 -3.265625 21.34375 -3.765625 21.09375 C -4.265625 20.84375 -4.710938 20.546875 -5.109375 20.203125 C -5.515625 19.867188 -5.914062 19.457031 -6.3125 18.96875 C -6.71875 18.476562 -7.070312 17.988281 -7.375 17.5 C -7.675781 17.007812 -7.976562 16.46875 -8.28125 15.875 Z M 0.5 18.984375 L 0.703125 18.875 C 1.335938 18.539062 1.832031 18.160156 2.1875 17.734375 C 2.539062 17.316406 2.773438 16.785156 2.890625 16.140625 C 3.015625 15.503906 2.953125 14.742188 2.703125 13.859375 C 2.453125 12.972656 2.019531 11.945312 1.40625 10.78125 L 0.984375 9.984375 C 0.128906 8.347656 -0.722656 7.101562 -1.578125 6.25 C -2.441406 5.40625 -3.257812 4.921875 -4.03125 4.796875 C -4.8125 4.671875 -5.613281 4.828125 -6.4375 5.265625 L -6.625 5.359375 C -7.226562 5.679688 -7.703125 6.078125 -8.046875 6.546875 C -8.390625 7.023438 -8.59375 7.613281 -8.65625 8.3125 C -8.726562 9.007812 -8.617188 9.84375 -8.328125 10.8125 C -8.046875 11.789062 -7.582031 12.898438 -6.9375 14.140625 L -6.5 14.953125 C -5.882812 16.128906 -5.285156 17.070312 -4.703125 17.78125 C -4.117188 18.488281 -3.535156 18.976562 -2.953125 19.25 C -2.378906 19.519531 -1.820312 19.628906 -1.28125 19.578125 C -0.738281 19.523438 -0.144531 19.328125 0.5 18.984375 Z M 0.5 18.984375 "/></g></g></g><g fill="#dce1de" fill-opacity="1"><g transform="translate(499.460748, 539.281615)"><g><path d="M -3.46875 1.421875 L -1.609375 0.65625 L 5.453125 18 L 3.828125 18.65625 L -10.203125 8.640625 L -4.703125 22.140625 L -6.546875 22.890625 L -13.609375 5.546875 L -12 4.890625 L 2.03125 14.9375 Z M -3.46875 1.421875 "/></g></g></g><g fill="#dce1de" fill-opacity="1"><g transform="translate(476.762567, 548.119006)"><g/></g></g><g fill="#dce1de" fill-opacity="1"><g transform="translate(453.325687, 554.753784)"><g><path d="M -11.703125 11.53125 L -12.09375 9.5625 L -1.3125 7.421875 L -0.921875 9.390625 Z M -11.703125 11.53125 "/></g></g></g><g fill="#dce1de" fill-opacity="1"><g transform="translate(429.363397, 559.125807)"><g/></g></g><g fill="#dce1de" fill-opacity="1"><g transform="translate(405.09362, 561.195264)"><g><path d="M -7.96875 19.109375 L -8.3125 19.109375 C -10.320312 19.117188 -11.875 18.703125 -12.96875 17.859375 C -14.070312 17.015625 -14.625 15.832031 -14.625 14.3125 L -14.640625 13.78125 C -14.640625 13.375 -14.472656 12.835938 -14.140625 12.171875 C -13.816406 11.503906 -13.359375 10.921875 -12.765625 10.421875 L -5.765625 4.6875 C -5.003906 4.070312 -4.421875 3.179688 -4.015625 2.015625 L -14.6875 2.078125 L -14.703125 0.078125 L -2.125 0.015625 L -2.109375 2.671875 C -2.640625 4.179688 -3.429688 5.363281 -4.484375 6.21875 L -11.484375 11.96875 C -11.734375 12.175781 -11.953125 12.425781 -12.140625 12.71875 C -12.328125 13.007812 -12.453125 13.238281 -12.515625 13.40625 C -12.585938 13.582031 -12.628906 13.703125 -12.640625 13.765625 L -12.625 14.296875 C -12.613281 16.179688 -11.175781 17.117188 -8.3125 17.109375 L -7.96875 17.109375 C -7.0625 17.097656 -6.316406 17.003906 -5.734375 16.828125 C -5.160156 16.660156 -4.742188 16.460938 -4.484375 16.234375 C -4.234375 16.003906 -3.988281 15.691406 -3.75 15.296875 L -2.03125 16.34375 C -2.613281 17.300781 -3.359375 18 -4.265625 18.4375 C -5.171875 18.875 -6.40625 19.097656 -7.96875 19.109375 Z M -7.96875 19.109375 "/></g></g></g><g fill="#dce1de" fill-opacity="1"><g transform="translate(380.737002, 560.943193)"><g><path d="M -4.9375 3.34375 C -5.5625 1.882812 -6.707031 1.078125 -8.375 0.921875 C -9.125 0.859375 -9.773438 0.914062 -10.328125 1.09375 C -10.890625 1.28125 -11.363281 1.570312 -11.75 1.96875 C -12.132812 2.375 -12.460938 2.910156 -12.734375 3.578125 C -13.003906 4.242188 -13.210938 4.972656 -13.359375 5.765625 C -13.515625 6.566406 -13.644531 7.507812 -13.75 8.59375 C -13.863281 9.945312 -13.878906 11.066406 -13.796875 11.953125 Z M -9.75 16.25 C -9.125 16.3125 -8.566406 16.289062 -8.078125 16.1875 C -7.597656 16.09375 -7.144531 15.894531 -6.71875 15.59375 C -6.300781 15.300781 -5.945312 14.890625 -5.65625 14.359375 C -5.363281 13.828125 -5.113281 13.148438 -4.90625 12.328125 C -4.695312 11.515625 -4.546875 10.546875 -4.453125 9.421875 C -4.316406 7.960938 -4.300781 6.703125 -4.40625 5.640625 L -13.21875 14.171875 C -12.582031 15.410156 -11.425781 16.101562 -9.75 16.25 Z M -15.75 8.40625 C -15.632812 7.195312 -15.476562 6.125 -15.28125 5.1875 C -15.09375 4.257812 -14.8125 3.363281 -14.4375 2.5 C -14.0625 1.632812 -13.609375 0.929688 -13.078125 0.390625 C -12.546875 -0.140625 -11.863281 -0.539062 -11.03125 -0.8125 C -10.195312 -1.082031 -9.25 -1.171875 -8.1875 -1.078125 C -5.957031 -0.867188 -4.363281 0.113281 -3.40625 1.875 L -1.40625 -0.0625 L -0.515625 1.875 L -2.640625 3.953125 C -2.304688 5.441406 -2.242188 7.328125 -2.453125 9.609375 C -2.535156 10.640625 -2.664062 11.5625 -2.84375 12.375 C -3.03125 13.195312 -3.300781 14.007812 -3.65625 14.8125 C -4.019531 15.625 -4.46875 16.285156 -5 16.796875 C -5.53125 17.316406 -6.210938 17.710938 -7.046875 17.984375 C -7.890625 18.253906 -8.851562 18.335938 -9.9375 18.234375 C -12.164062 18.035156 -13.765625 17.175781 -14.734375 15.65625 L -16.71875 17.546875 L -17.515625 15.546875 L -15.515625 13.625 C -15.859375 12.269531 -15.9375 10.53125 -15.75 8.40625 Z M -15.75 8.40625 "/></g></g></g><g fill="#dce1de" fill-opacity="1"><g transform="translate(356.515193, 558.372065)"><g><path d="M -11.4375 17.25 L -11.78125 17.1875 C -13.75 16.8125 -15.191406 16.101562 -16.109375 15.0625 C -17.035156 14.03125 -17.359375 12.765625 -17.078125 11.265625 L -16.984375 10.75 C -16.910156 10.351562 -16.648438 9.859375 -16.203125 9.265625 C -15.753906 8.671875 -15.1875 8.191406 -14.5 7.828125 L -6.5625 3.515625 C -5.6875 3.046875 -4.945312 2.28125 -4.34375 1.21875 L -14.828125 -0.75 L -14.453125 -2.71875 L -2.09375 -0.390625 L -2.578125 2.21875 C -3.390625 3.601562 -4.390625 4.617188 -5.578125 5.265625 L -13.546875 9.578125 C -13.828125 9.734375 -14.085938 9.9375 -14.328125 10.1875 C -14.566406 10.445312 -14.734375 10.648438 -14.828125 10.796875 C -14.929688 10.953125 -14.992188 11.0625 -15.015625 11.125 L -15.109375 11.640625 C -15.460938 13.492188 -14.234375 14.6875 -11.421875 15.21875 L -11.078125 15.28125 C -10.191406 15.445312 -9.441406 15.5 -8.828125 15.4375 C -8.222656 15.375 -7.773438 15.257812 -7.484375 15.09375 C -7.191406 14.925781 -6.894531 14.664062 -6.59375 14.3125 L -5.09375 15.65625 C -5.851562 16.488281 -6.71875 17.03125 -7.6875 17.28125 C -8.65625 17.539062 -9.90625 17.53125 -11.4375 17.25 Z M -11.4375 17.25 "/></g></g></g><g fill="#dce1de" fill-opacity="1"><g transform="translate(332.648472, 553.505178)"><g><path d="M -13.03125 16.078125 L -13.359375 15.984375 C -15.285156 15.421875 -16.65625 14.582031 -17.46875 13.46875 C -18.289062 12.351562 -18.492188 11.0625 -18.078125 9.59375 L -17.921875 9.09375 C -17.804688 8.695312 -17.5 8.222656 -17 7.671875 C -16.507812 7.117188 -15.90625 6.695312 -15.1875 6.40625 L -6.859375 2.859375 C -5.941406 2.492188 -5.132812 1.804688 -4.4375 0.796875 L -14.6875 -2.15625 L -14.125 -4.078125 L -2.046875 -0.59375 L -2.78125 1.953125 C -3.71875 3.265625 -4.8125 4.179688 -6.0625 4.703125 L -14.390625 8.234375 C -14.691406 8.359375 -14.972656 8.535156 -15.234375 8.765625 C -15.492188 8.992188 -15.679688 9.179688 -15.796875 9.328125 C -15.910156 9.484375 -15.976562 9.585938 -16 9.640625 L -16.15625 10.140625 C -16.675781 11.953125 -15.5625 13.257812 -12.8125 14.0625 L -12.484375 14.15625 C -11.609375 14.40625 -10.867188 14.523438 -10.265625 14.515625 C -9.660156 14.515625 -9.203125 14.441406 -8.890625 14.296875 C -8.578125 14.160156 -8.25 13.9375 -7.90625 13.625 L -6.5625 15.109375 C -7.382812 15.859375 -8.289062 16.3125 -9.28125 16.46875 C -10.28125 16.632812 -11.53125 16.503906 -13.03125 16.078125 Z M -13.03125 16.078125 "/></g></g></g><g fill="#dce1de" fill-opacity="1"><g transform="translate(309.35392, 546.386821)"><g/></g></g><g fill="#dce1de" fill-opacity="1"><g transform="translate(286.843429, 537.081745)"><g><path d="M -16.34375 1.796875 L -15.4375 0.015625 L -5.640625 5.015625 L -6.546875 6.796875 Z M -16.34375 1.796875 "/></g></g></g><g fill="#dce1de" fill-opacity="1"><g transform="translate(245.282628, 520.907529)"><g><path d="M 137.671875 -383.828125 C 152.335938 -383.828125 167.6875 -382.800781 183.71875 -380.75 C 199.757812 -378.707031 214.945312 -374.789062 229.28125 -369 C 248.382812 -361.488281 263.648438 -350.394531 275.078125 -335.71875 C 286.515625 -321.050781 292.742188 -305.019531 293.765625 -287.625 C 294.441406 -271.925781 291.878906 -258.445312 286.078125 -247.1875 C 280.285156 -235.925781 272.441406 -225.945312 262.546875 -217.25 C 252.648438 -208.550781 241.726562 -200.445312 229.78125 -192.9375 C 217.84375 -185.4375 206.070312 -177.847656 194.46875 -170.171875 C 182.875 -162.492188 172.554688 -154.132812 163.515625 -145.09375 C 154.472656 -136.050781 147.816406 -125.382812 143.546875 -113.09375 C 139.285156 -100.8125 138.691406 -86.316406 141.765625 -69.609375 L 134.09375 -69.609375 C 126.925781 -90.753906 124.617188 -108.660156 127.171875 -123.328125 C 129.734375 -138.003906 135.28125 -150.546875 143.8125 -160.953125 C 152.34375 -171.359375 162.40625 -180.828125 174 -189.359375 C 185.601562 -197.890625 197.035156 -206.503906 208.296875 -215.203125 C 219.554688 -223.898438 229.109375 -233.707031 236.953125 -244.625 C 244.796875 -255.550781 249.0625 -268.859375 249.75 -284.546875 C 250.769531 -300.242188 247.1875 -314.914062 239 -328.5625 C 230.8125 -342.207031 219.378906 -353.460938 204.703125 -362.328125 C 190.035156 -371.203125 173.148438 -375.8125 154.046875 -376.15625 C 134.597656 -376.84375 115.742188 -374.03125 97.484375 -367.71875 C 79.234375 -361.40625 64.992188 -351.59375 54.765625 -338.28125 C 47.253906 -328.394531 42.304688 -316.96875 39.921875 -304 C 37.535156 -291.03125 38.898438 -277.382812 44.015625 -263.0625 C 29.679688 -262.71875 18.757812 -266.382812 11.25 -274.0625 C 3.75 -281.738281 0 -291.375 0 -302.96875 C 0 -312.863281 2.898438 -321.988281 8.703125 -330.34375 C 14.503906 -338.707031 21.753906 -346.046875 30.453125 -352.359375 C 39.148438 -358.671875 47.59375 -363.703125 55.78125 -367.453125 C 68.75 -373.253906 82.140625 -377.429688 95.953125 -379.984375 C 109.773438 -382.546875 123.679688 -383.828125 137.671875 -383.828125 Z M 137.671875 -42.484375 C 131.867188 -42.484375 126.921875 -40.429688 122.828125 -36.328125 C 118.734375 -32.234375 116.6875 -27.289062 116.6875 -21.5 C 116.6875 -15.695312 118.734375 -10.660156 122.828125 -6.390625 C 126.921875 -2.128906 131.867188 0 137.671875 0 C 143.472656 0 148.503906 -2.128906 152.765625 -6.390625 C 157.023438 -10.660156 159.15625 -15.695312 159.15625 -21.5 C 159.15625 -27.289062 157.023438 -32.234375 152.765625 -36.328125 C 148.503906 -40.429688 143.472656 -42.484375 137.671875 -42.484375 Z M 137.671875 -42.484375 "/></g></g></g><g clip-path="url(#3ccc170593)"><g clip-path="url(#094e956a4f)"><g clip-path="url(#4cf59d5e16)"><g clip-path="url(#1fc0e99160)"><path stroke-linecap="butt" transform="matrix(0.748946, 0.0397438, -0.0397438, 0.748946, 160.892278, 44.259553)" fill="none" stroke-linejoin="miter" d="M 331.859914 0.000391441 C 148.576303 -0.000636754 0.00158827 148.581352 0.000560078 331.864962 C -0.000468117 515.148573 148.576596 663.728765 331.860206 663.729793 C 515.138615 663.731097 663.718531 515.148832 663.71956 331.865222 C 663.720588 148.581612 515.138323 0.00169563 331.859914 0.000391441 Z M 331.859914 0.000391441 " stroke="#49a078" stroke-width="2" stroke-opacity="1" stroke-miterlimit="4"/></g></g></g></g><g clip-path="url(#56f985e40f)"><g clip-path="url(#c736a56046)"><path stroke-linecap="butt" transform="matrix(0.75, 0, 0, 0.75, 109.472156, 18.737259)" fill="none" stroke-linejoin="miter" d="M 382.354826 0.0013635 C 171.182955 0.0013635 0.000667124 171.18886 0.000667124 382.360731 C 0.000667124 593.532601 171.182955 764.720098 382.354826 764.720098 C 593.521488 764.720098 764.703776 593.532601 764.703776 382.360731 C 764.703776 171.18886 593.521488 0.0013635 382.354826 0.0013635 Z M 382.354826 0.0013635 " stroke="#49a078" stroke-width="2" stroke-opacity="1" stroke-miterlimit="4"/></g></g></svg>